<svg xmlns="http://www.w3.org/2000/svg" width="869.621" height="67.667" viewBox="0 0 869.621 67.667">
  <defs>
    <style>
      .cls-1 {
        fill: #fff;
        stroke: #fff;
        stroke-miterlimit: 10;
        stroke-width: 0.5px;
      }
    </style>
  </defs>
  <g id="レイヤー_2" data-name="レイヤー 2">
    <g id="レイヤー_2-2" data-name="レイヤー 2">
      <g>
        <path class="cls-1" d="M15.791,50.314c2.94,2.59,6.861,5.112,8.471,5.112,4.69,0,8.47-18.272,8.47-23.034,0-5.88-.769-8.611-5.11-8.611a21.1,21.1,0,0,0-5.32.981A290.107,290.107,0,0,1,7.32,56.266c-1.75,3.291-2.38,3.71-3.36,3.71-.771,0-1.54-.771-1.54-2.941,0-1.4.42-1.959,2.17-4.551,4.9-6.509,9.241-15.89,14.141-26.742-2.94.981-7.491,2.381-10.01,3.92-1.75.98-2.171,1.4-2.731,1.4-1.82,0-5.74-2.8-5.74-6.509a3.324,3.324,0,0,1,.42-1.541C2.21,25.322,3.82,26.3,5.15,26.3c2.59,0,8.891-1.961,14.772-3.5,2.38-5.112,3.57-9.243,3.57-12.252,0-2.1-3.15-3.5-4.761-4.131a6.616,6.616,0,0,1,3.151-.561c3.36,0,6.931,2.592,6.931,4.692,0,1.4-1.611,3.009-2.17,4.55-.42.981-1.821,4.34-3.151,6.86a41.4,41.4,0,0,1,4.13-.35c5.671,0,8.472,3.151,8.472,9.451,0,8.051-2.171,18.692-6.091,25.2-1.82,3.15-5.321,5.88-7.141,5.88-2.31,0-1.19-2.17-2.171-3.921a30.543,30.543,0,0,0-5.32-7.28Zm28.563-12.74c6.861-.211,9.241-1.611,9.241-3.15,0-3.782-8.261-11.272-13.581-14.563,10.991,1.75,18.9,11.412,18.9,18.832,0,1.821-.42,3.01-1.4,3.01s-1.96-1.4-3.921-1.82c-2.17-.559-6.3-1.19-9.241-1.959Z"/>
        <path class="cls-1" d="M87.681,22.8c-3.29,0-5.671-2.592-6.091-5.952,1.61,1.61,2.591,2.8,5.951,2.8a41.4,41.4,0,0,0,9.381-1.4c1.19-2.522,2.38-5.32,3.15-7.492.84-2.729-.77-3.36-3.921-4.69a6.713,6.713,0,0,1,3.781-.98c2.171,0,5.671,2.941,5.671,4.48,0,2.031-.98.84-4.55,7.49a23.774,23.774,0,0,0,5.53-1.959,8.781,8.781,0,0,1,3.92-1.4c.841,0,3.57.629,3.57,1.82,0,.981-.979,1.539-2.17,1.75-2.38.561-7.491,2.17-12.811,3.571-3.5,7.42-10.571,22.611-14.352,27.513a1.56,1.56,0,0,1-1.189.629c-.561,0-1.541-.84-1.541-2.8,0-1.75.98-2.169,4.691-7.63,1.19-1.959,5.111-9.241,8.681-16.942A43.109,43.109,0,0,1,87.681,22.8Zm16.731,40.324c-6.65,0-10.221-3.57-10.221-6.721,0-4.271,5.321-7.422,12.812-7.422.98,0,2.38.141,4.341.35a2.516,2.516,0,0,0-.211-1.19c0-2.169-.42-5.32-.42-6.65,0-1.4-.21-6.512,6.3-9.451,2.381-.981,7.071-1.75,7.071-3.151,0-1.609-3.711-3.781-9.591-5.531a4.968,4.968,0,0,1,2.73-.558c9.031,0,14.771,6.509,14.771,9.589a1.731,1.731,0,0,1-1.4,1.821c-.981,0-3.5-2.17-6.862-2.17-3.57,0-7.91.98-9.1,3.711a6.582,6.582,0,0,0-.771,3.57c0,.979.771,7.279,1.191,10.85a29.377,29.377,0,0,1,8.26,2.73c2.591,1.4,4.761,3.151,4.761,5.321a1.67,1.67,0,0,1-1.82,1.751c-1.33,0-4.341-4.13-10.781-6.3C115.264,58.435,112.533,63.127,104.412,63.127Zm1.61-11.2c-4.549,0-8.89,1.539-8.89,4.48,0,2.379,3.15,3.57,6.3,3.57,4.34,0,7.7-2.171,8.05-6.511v-.981A27.3,27.3,0,0,0,106.022,51.926Z"/>
        <path class="cls-1" d="M162.37,63.127c-.98,0-1.75-.981-1.75-2.942,0-1.609,1.12-3.15,4.481-5.74,2.379-1.75,7.07-7.07,12.39-12.742,5.741-6.16,11.621-11.621,11.621-13.021,0-1.19-.349-1.4-1.54-1.4-2.94,0-10.64,3.57-12.6,4.76a4.838,4.838,0,0,1-2.8.98c-2.1,0-5.251-3.57-5.251-5.32a7.754,7.754,0,0,1,.351-1.961,5.955,5.955,0,0,0,5.11,2.731c2.17,0,12.041-2.731,14.561-3.711.63-.209,2.941-1.4,4.341-1.4,1.19,0,5.111,2.381,5.111,4.131,0,.981-1.191,1.82-2.17,2.17-2.521.98-13.932,12.182-16.872,15.822l.139.141a13.163,13.163,0,0,1,3.151-.42c3.36,0,5.951,1.189,7.14,6.721,1.33,6.65,3.5,7.279,8.822,7.279,5.88,0,8.47-1.959,10.851-1.959a2.883,2.883,0,0,1,3.149,2.52c0,1.609-3.78,2.589-11.27,2.589-11.972,0-13.582-3.779-15.122-10.22-.77-2.8-1.96-5.112-5.32-5.112-1.75,0-2.731.772-4.551,2.522-.35.209-5.46,6.51-8.051,10.012C164.891,61.375,163.56,63.127,162.37,63.127Zm16.1-47.256c2.17-.98,5.95-3.291,5.95-4.131,0-.56-.98-1.33-2.17-1.959-3.92-2.172-6.091-6.3-6.091-9.031,2.941,3.92,8.471,6.859,11.621,8.051,2.1.98,4.9,2.59,4.9,4.9,0,1.19-.63,1.609-1.96,1.609-1.4,0-2.941-.628-4.34-.628-1.961,0-6.3,1.4-7.7,1.82Z"/>
        <path class="cls-1" d="M251.9,38.344a29.969,29.969,0,0,1,17.573-6.3c5.95,0,14.981,3.15,14.981,13.582,0,10.01-9.661,15.541-19.252,15.541-6.3,0-13.021-2.381-13.021-7.91,0-2.942,2.589-5.461,7.28-5.461,4.551,0,8.472,2.939,10.642,9.8,3.919-.77,10.22-5.461,10.22-12.743,0-6.72-3.71-10.64-12.39-10.64-7.492,0-14.773,4.9-20.653,10.64-1.961,1.75-4.97,7.422-6.51,7.422-.771,0-1.75-1.121-1.75-2.31,0-3.99,3.29-3.782,12.951-16.172,4.76-6.3,14.561-19.252,14.561-21.633,0-.559-.35-.769-1.33-.769-.841,0-7.7,1.96-9.661,3.291-2.171,1.189-2.8,1.4-3.36,1.4-2.17,0-5.111-2.941-5.111-6.3a2.542,2.542,0,0,1,.35-1.33,4.562,4.562,0,0,0,4.341,3.15c5.32,0,15.751-3.781,16.731-3.781,1.611,0,4.341,2.59,4.341,4.551,0,1.75-1.4,1.33-3.921,4.34-7.7,9.031-12.6,15.681-17.151,21.562Zm6.162,12.181a2.85,2.85,0,0,0-3.151,2.94c0,3.361,3.99,4.76,11.621,4.76C265.343,54.654,262.192,50.525,258.063,50.525Z"/>
        <path class="cls-1" d="M359.984,18.531c1.33,0,2.661-3.08,3.361-3.08.84,0,4.969,3.5,4.969,4.34,0,1.121-2.66,1.75-2.66,3.5,0,1.682-.139,21-1.75,28.424-1.54,7.351-4.2,14.422-15.542,15.681-.7-2.17-1.259-3.22-8.33-7.351,0-.139.07-.209.07-.35a56.62,56.62,0,0,0,10.221,1.33c5.321,0,7.561-2.1,8.961-7.349,2.17-7.842,2.17-17.784,2.17-33.465H339.892c-.77,16.8-5.811,39.834-30.1,46.765l-.28-.49c18.552-9.8,25.482-27.863,26.182-46.275H320.22a65.1,65.1,0,0,0-8.331.42l-1.12-2.66c1.61.281,7.771.56,9.661.56h15.261c0-6.441,0-11.41-1.33-15.4l5.04,1.33c1.961.49,3.5.49,3.5,1.891,0,1.681-2.87,1.96-2.87,3.921,0,2.379,0,5.321-.14,8.26Z"/>
        <path class="cls-1" d="M406.811,50.945c3.15,2.52,7.281,4.9,8.891,4.9,4.13,0,7.841-16.733,7.631-23.243,0-5.88-.77-8.47-5.11-8.47a17.286,17.286,0,0,0-5.532,1.189c-3.5,8.891-9.03,22.262-14.141,31.924-1.61,3.15-2.17,3.709-3.151,3.709s-1.75-.77-1.75-2.939c0-1.4.351-1.961,2.171-4.76,4.691-6.442,8.611-15.893,13.161-26.953a66.877,66.877,0,0,0-9.871,4.13c-1.54,1.19-1.96,1.61-2.73,1.61-1.54,0-5.671-2.731-5.671-6.3a3.642,3.642,0,0,1,.351-1.609c1.96,2.8,2.589,3.15,4.549,3.15,2.521,0,8.822-2.31,14.563-3.922,2.17-5.32,3.359-9.451,3.359-12.39-.21-1.961-3.78-3.362-5.11-3.92a5.422,5.422,0,0,1,3.15-.631c3.291,0,7.072,2.381,7.072,4.551,0,1.4-1.4,2.73-1.961,4.55-.42.981-1.82,4.34-3.01,7.071a25.667,25.667,0,0,1,4.551-.77c5.74,0,8.47,3.151,8.68,9.24.21,8.262-1.82,18.9-5.53,25.553-1.751,3.151-5.321,5.951-7.071,5.951-2.38,0-1.4-2.17-2.38-3.99a35.007,35.007,0,0,0-5.531-7.281Zm28.563-13.791c6.65-.422,8.821-1.611,8.821-3.15,0-3.711-8.471-10.992-13.931-14.352,11.55,2.17,19.462,11.41,19.462,18.272,0,2.379-.63,2.939-1.191,2.939-1.189,0-1.54-.98-4.13-1.539-2.171-.631-6.3-.98-9.241-1.75Zm-.21-24.433c7.631,0,12.182,3.57,12.182,6.16,0,1.121-.351,1.75-1.4,1.75-.98,0-2.73-1.75-4.131-2.94-1.33-1.4-6.65-3.781-8.4-4.34A5.252,5.252,0,0,1,435.164,12.721Zm7.07-5.321c5.112,0,12.042,1.4,12.042,5.951,0,.979-.63,1.54-1.05,1.54-.98,0-2.1-.981-3.29-2.311-2.17-2.029-6.091-3.15-10.431-4.549A5.786,5.786,0,0,1,442.234,7.4Z"/>
        <path class="cls-1" d="M469.109,49.125C478,50.174,486.4,55.564,486.4,62.775c0,2.8-1.96,3.5-2.589,3.5-4.622,0-2.1-9.383-14.842-16.8Z"/>
        <path class="cls-1" d="M540.091,22.662c10.571-.281,22.332-1.189,26.323-1.75a46.955,46.955,0,0,0-6.231-4.41l.21-.49c17.222,4.9,17.921,9.31,17.921,10.57,0,1.33-.629,2.66-2.03,2.66-1.33,0-2.59-1.471-4.41-3.289l-3.851-3.781L528.4,26.861c-1.889.211-1.75,1.471-2.66,1.821a.886.886,0,0,1-.42.07c-.56,0-.84-.77-1.33-2.029l-1.89-4.762c2.87.771,9.171.842,16.242.771a57.288,57.288,0,0,0,4.27-9.172h-12.6a67.507,67.507,0,0,0-8.471.42l-1.051-2.66c1.541.281,7.772.561,9.592.561h18.691V8.1a25.643,25.643,0,0,0-1.12-6.02l5.322,1.049c.7.14,1.96.56,1.96,1.191,0,1.26-2.311,2.03-2.311,3.01v4.551h19.112c1.12,0,3.29-4.061,4.2-4.061,1.049,0,5.67,4.131,5.67,4.9,0,.7-.28.839-1.47.839H548.981ZM563.823,51.3H538.271V62.986c0,1.68-.56,3.85-2.59,3.85-1.611,0-1.751-.77-1.751-2.029,0-2.661.49-22.614.49-26.883a52.391,52.391,0,0,0-.56-9.1c1.26.561,2.31,1.19,3.361,1.611a7.515,7.515,0,0,0,3.219.77h21.7c.909,0,2.24-2.381,2.939-2.381.841,0,4.48,2.24,4.48,3.01,0,1.4-1.889,1.82-1.889,3.082s.42,19.531.42,23.1-1.611,7.839-7.141,8.681c-.91-2.31-2.66-3.781-6.511-5.531v-.49c1.05.07,6.161.349,7.351.349,2.03,0,2.03-1.33,2.03-3.009Zm0-11.061V32.883H538.271v7.351Zm0,9.381v-7.7H538.271v7.7Z"/>
        <path class="cls-1" d="M619.051,53.115c16.311-1.611,36.754-6.092,36.754-21.283,0-7.49-6.3-12.951-14.562-12.951-7.841,0-19.042,5.672-26.182,10.781-2.521,1.961-4.271,4.131-5.671,4.131-2.731,0-5.531-4.131-5.531-5.881a6.631,6.631,0,0,1,.63-2.59c.981,1.4,2.311,2.8,4.131,2.8,3.29,0,16.312-11.412,32.833-11.412,10.431,0,18.693,6.3,18.693,16.1,0,15.332-18.9,21.284-36.825,21.284a24.942,24.942,0,0,1-4.27-.211Z"/>
        <path class="cls-1" d="M695.7,23.082V43.875l9.591-3.781c.07.07.07.209.141.279-2.87,3.012-17.153,10.922-17.993,11.412-.91.561-.629,2.1-1.4,2.59a.992.992,0,0,1-.42.141c-.7,0-1.26-.772-1.609-1.541L681.629,48c1.82.211,5.951-1.119,10.361-2.731V23.082a75.07,75.07,0,0,0-8.331.35l-1.12-2.661a80.631,80.631,0,0,0,9.451.631V10.691a35.144,35.144,0,0,0-1.26-6.652l5.041,1.541c1.19.35,2.52.561,2.52,1.541S695.7,8.66,695.7,9.99V21.4h3.151c.91,0,2.52-3.15,3.291-3.15.839,0,4.339,3.5,4.339,3.99,0,.7-.419.84-1.33.84Zm20.653,11.131a68.277,68.277,0,0,1-4.2,6.512h22.4c1.469,0,2.59-2.381,3.71-2.381.91,0,4.97,2.589,4.97,3.5s-2.66,1.679-2.66,3.08c0,1.47-1.19,11.551-3.221,15.611-2.03,3.922-2.87,6.162-8.68,6.582-.28-2.521-3.08-5.041-5.04-5.951v-.561l6.44.84c1.611.211,2.941-.138,3.851-2.379.91-2.591,2.66-7.14,2.66-16.662h-5.251c-2.38,5.461-9.521,20.233-22.4,24.432-.07-.139-.21-.209-.28-.35,6.09-4.2,14.631-13.511,17.922-24.082H721.6c-4.481,6.791-12.462,19.461-25.343,22.612,0-.209-.071-.35-.071-.559,7-4.131,15.123-12.043,20.373-22.053h-5.741c-3.99,4.9-8.26,9.031-11.831,10.781l-.421-.419a52.932,52.932,0,0,0,12.812-18.553h-2.1c-2.171,0-6.231.07-8.261.279l-1.19-2.59c1.54.281,7.7.631,9.591.631h27.022c1.331,0,3.361-3.92,4.2-3.92s5.32,3.779,5.32,4.619c0,.91-.63.981-1.82.981Zm-.7-7.49c0,1.75-.559,2.8-2.309,2.8-1.611,0-1.681-.771-1.681-1.89,0-2.381.28-14.073.28-16.662a23.718,23.718,0,0,0-.7-6.3c2.03.98,4.971,2.519,6.721,2.519h9.381c2.24,0,3.08-2.17,3.85-2.17.7,0,3.92,2.452,3.92,3.291s-2.1,1.75-2.1,2.661.42,11.271.42,14.351c0,3.151-.911,3.92-2.451,3.92s-1.54-.91-1.54-2.519Zm0-17.852v6.721h13.792V8.871Zm13.792,16.172V17.271H715.652v7.772Z"/>
        <path class="cls-1" d="M763.948,66.207c5.531-9.1,6.371-23.242,6.371-32.693,0-3.711-.21-11.622-1.12-15.4,2.1,1.26,5.53,2.94,6.231,2.94h11.131c.49,0,1.68-2.241,2.52-2.241.771,0,4.621,2.172,4.621,3.082,0,1.331-2.171,1.68-2.24,2.241,0,1.888.14,13.509.35,15.611,0,1.82-.911,3.01-2.661,3.01-1.68,0-1.47-2.24-1.47-2.311H774.17c-.49,6.442-2.87,19.883-9.871,26.114ZM786.561,7.82c.63,0,2.38-3.429,3.43-3.429.84,0,5.041,3.57,5.041,4.48,0,.629-.49.629-1.12.629H774.8a83.954,83.954,0,0,0-8.471.35l-1.12-2.661c1.54.282,7.841.631,9.661.631Zm1.12,14.912H774.17V38.764h13.511Zm14.351,5.95c0,10.992-3.15,28.144-21,35.494-.07-.139-.07-.35-.139-.491,14.561-10.15,17.292-22.4,17.292-36.892,0-4.9-.141-13.652-1.051-18.412,1.19.629,4.48,2.519,5.321,2.519,4.13-.14,15.121-4.9,16.942-7.281l4.41,3.99a1.773,1.773,0,0,1,.63,1.121.839.839,0,0,1-.84.84c-.77,0-2.17-.42-2.8-.42h-.28a163.627,163.627,0,0,1-18.483,2.94V27h17.5c.841,0,2.941-3.779,3.851-3.779.98,0,5.461,3.849,5.461,4.759,0,.631-.42.7-.841.7H816.454c0,3.15.56,28.144.7,34.584,0,3.781-2.591,4.06-3.22,4.06a1.6,1.6,0,0,1-1.54-1.75c0-1.189.56-12.391.56-15.541V28.682Z"/>
        <path class="cls-1" d="M848.369,55.775a10.5,10.5,0,1,1,10.5,10.5A10.488,10.488,0,0,1,848.369,55.775Zm18.9,0a8.4,8.4,0,1,0-8.4,8.4A8.425,8.425,0,0,0,867.271,55.775Z"/>
      </g>
    </g>
  </g>
</svg>
